<svg width="98" height="49" viewBox="0 0 98 49" fill="none" xmlns="http://www.w3.org/2000/svg">
<path d="M7.43371 12.4753L4.87793 10.2031" stroke="black" stroke-width="1.45099" stroke-linecap="round"/>
<path d="M15.9576 10.3939L15.9658 7.08691" stroke="black" stroke-width="1.45099" stroke-linecap="round"/>
<path d="M26.3471 10.3935L23.9951 12.8525" stroke="black" stroke-width="1.45099" stroke-linecap="round"/>
<path d="M56.5371 3.73242C64.0528 1.37715 75.5693 -1.79439 86.4619 7.71484C89.7097 10.7352 93.5883 16.1304 94.7129 22.4443C95.8206 28.6638 94.2884 35.9218 86.4668 42.9121C85.2492 44.0002 83.017 45.0381 79.8252 45.8691C76.6707 46.6905 72.7153 47.2757 68.1846 47.5518C59.1249 48.1037 47.8696 47.4124 36.3193 44.9785L36.292 44.9727L36.2646 44.9688L35.7314 44.875C32.987 44.3692 29.0973 43.2833 25.7568 41.5713C22.1442 39.7198 19.6008 37.3606 19.2393 34.5791C19.2554 33.9204 19.5052 33.0165 20.0762 31.8711C20.6579 30.7041 21.5252 29.376 22.6465 27.9346C24.8883 25.0527 28.0709 21.8126 31.7832 18.626C39.2273 12.236 48.6244 6.21211 56.5371 3.73242Z" stroke="black" stroke-width="2.53923"/>
<path d="M12.1865 33.543H15.7041V34.4878H14.4478V35.4327H15.7041V36.6138H12.1865V35.4327H14.4478V34.4878L12.1865 34.5225V33.543Z" fill="black"/>
<path d="M15.7041 37.5586H12.1865C12.3875 38.3145 12.9403 38.6609 13.1915 38.7397H15.7041V37.5586Z" fill="black"/>
<path d="M17.0041 32.3749H11.7278C11.7278 29.9183 10.7228 28.1231 9.96898 27.6506C6.14992 24.8161 6.70268 19.8556 7.45644 17.7296C9.66748 12.0605 16.0828 12.3755 19.0141 13.2416C24.2496 14.7885 25.5059 20.5519 25.0442 22.4539C24.4853 24.7569 21.5267 28.3593 20.0192 29.3041C17.9602 30.5946 17.8416 31.1939 17.0041 32.3749Z" fill="black"/>
<path d="M5.15135 20.5518H1.63379" stroke="black" stroke-width="1.45099" stroke-linecap="round"/>
<path d="M30.4445 20.0577L26.9297 20.1968" stroke="black" stroke-width="1.45099" stroke-linecap="round"/>
<path d="M15.9238 26.4084C14.8434 26.4084 13.884 26.1929 13.0456 25.7619C12.2072 25.325 11.5489 24.711 11.0707 23.9198C10.5924 23.1228 10.3533 22.1811 10.3533 21.0947C10.3533 20.0202 10.5688 19.0755 10.9998 18.2608C11.4367 17.446 12.0537 16.8113 12.8508 16.3567C13.6537 15.8962 14.6072 15.6659 15.7113 15.6659C16.3076 15.6659 16.8832 15.7722 17.4382 15.9847C17.9991 16.1973 18.501 16.4984 18.9438 16.8881C19.3925 17.2777 19.7467 17.7412 20.0065 18.2785C20.2722 18.8158 20.405 19.4091 20.405 20.0586C20.405 20.3538 20.343 20.5663 20.2191 20.6962C20.0951 20.8202 19.9239 20.9029 19.7054 20.9442C19.487 20.9855 19.236 21.0209 18.9526 21.0505L12.2397 21.2364C12.2397 22.0099 12.405 22.6623 12.7356 23.1936C13.0663 23.7191 13.515 24.1176 14.0818 24.3892C14.6486 24.6549 15.2862 24.7877 15.9947 24.7877C16.4965 24.7877 16.9216 24.7228 17.27 24.5929C17.6183 24.463 17.9253 24.2948 18.191 24.0881C18.4626 23.8756 18.7283 23.6483 18.9881 23.4062C19.1711 23.2527 19.3659 23.1759 19.5726 23.1759C19.8146 23.1759 20.0154 23.2497 20.1748 23.3973C20.3401 23.539 20.4228 23.7309 20.4228 23.973C20.4228 24.3508 20.2663 24.6903 19.9534 24.9914C19.6464 25.2925 19.2567 25.5494 18.7844 25.7619C18.312 25.9686 17.819 26.128 17.3054 26.2401C16.7917 26.3523 16.3312 26.4084 15.9238 26.4084ZM12.2043 19.9877L17.5268 19.8726C17.6921 19.8608 17.8427 19.8283 17.9785 19.7752C18.1143 19.722 18.1821 19.6276 18.1821 19.4918C18.1821 18.925 18.0611 18.4733 17.819 18.1368C17.5829 17.7944 17.2759 17.5493 16.898 17.4017C16.5201 17.2482 16.1246 17.1715 15.7113 17.1715C14.6663 17.1715 13.8397 17.4283 13.2316 17.942C12.6234 18.4497 12.281 19.1316 12.2043 19.9877Z" fill="#E8E9E4"/>
<path d="M37.5537 30.3203C37.1547 30.3203 36.8464 30.2175 36.6287 30.012C36.4232 29.7943 36.3204 29.486 36.3204 29.087V18.7668C36.3204 18.3678 36.4232 18.0655 36.6287 17.8599C36.8464 17.6423 37.1547 17.5335 37.5537 17.5335H44.0288C44.3311 17.5335 44.5608 17.6121 44.718 17.7693C44.8873 17.9264 44.9719 18.1501 44.9719 18.4403C44.9719 18.7426 44.8873 18.9784 44.718 19.1477C44.5608 19.3049 44.3311 19.3835 44.0288 19.3835H38.5513V22.9021H43.6298C43.9441 22.9021 44.1799 22.9807 44.3371 23.1379C44.4943 23.2951 44.5729 23.5248 44.5729 23.8271C44.5729 24.1294 44.4943 24.3592 44.3371 24.5164C44.1799 24.6735 43.9441 24.7521 43.6298 24.7521H38.5513V28.4703H44.0288C44.3311 28.4703 44.5608 28.5489 44.718 28.7061C44.8873 28.8633 44.9719 29.093 44.9719 29.3953C44.9719 29.6976 44.8873 29.9273 44.718 30.0845C44.5608 30.2417 44.3311 30.3203 44.0288 30.3203H37.5537ZM48.1903 30.411C47.7792 30.411 47.4467 30.284 47.1928 30.0301C46.9509 29.7762 46.83 29.4497 46.83 29.0507C46.83 28.6638 46.9509 28.3494 47.1928 28.1076C47.4467 27.8536 47.7792 27.7267 48.1903 27.7267C48.6135 27.7267 48.94 27.8536 49.1697 28.1076C49.4116 28.3494 49.5325 28.6638 49.5325 29.0507C49.5325 29.4497 49.4116 29.7762 49.1697 30.0301C48.94 30.284 48.6135 30.411 48.1903 30.411ZM57.0769 30.5017C55.7468 30.5017 54.6042 30.2357 53.649 29.7036C52.7058 29.1595 51.9803 28.3978 51.4725 27.4183C50.9646 26.4268 50.7107 25.26 50.7107 23.9178C50.7107 22.9142 50.8558 22.0134 51.146 21.2154C51.4362 20.4052 51.8534 19.716 52.3975 19.1477C52.9416 18.5673 53.6066 18.126 54.3926 17.8237C55.1906 17.5093 56.0854 17.3521 57.0769 17.3521C57.7419 17.3521 58.3949 17.4367 59.0357 17.606C59.6766 17.7753 60.2389 18.0171 60.7225 18.3315C60.9764 18.4887 61.1457 18.6822 61.2304 18.9119C61.315 19.1296 61.3331 19.3472 61.2848 19.5649C61.2364 19.7704 61.1336 19.9457 60.9764 20.0908C60.8313 20.2359 60.6439 20.3206 60.4142 20.3448C60.1965 20.3569 59.9547 20.2783 59.6887 20.109C59.3139 19.8671 58.9088 19.6918 58.4735 19.583C58.0382 19.4742 57.5969 19.4198 57.1495 19.4198C56.291 19.4198 55.5655 19.5951 54.973 19.9457C54.3805 20.2964 53.9331 20.8042 53.6308 21.4693C53.3285 22.1343 53.1774 22.9505 53.1774 23.9178C53.1774 24.8731 53.3285 25.6892 53.6308 26.3664C53.9331 27.0435 54.3805 27.5574 54.973 27.908C55.5655 28.2587 56.291 28.434 57.1495 28.434C57.6089 28.434 58.0624 28.3796 58.5098 28.2708C58.9572 28.1499 59.3804 27.9685 59.7794 27.7267C60.0454 27.5695 60.2812 27.503 60.4867 27.5272C60.7044 27.5393 60.8858 27.6118 61.0309 27.7448C61.176 27.8778 61.2727 28.0471 61.3211 28.2527C61.3694 28.4461 61.3573 28.6517 61.2848 28.8693C61.2122 29.0749 61.0671 29.2563 60.8495 29.4134C60.3658 29.7641 59.7854 30.0362 59.1083 30.2296C58.4433 30.411 57.7661 30.5017 57.0769 30.5017ZM64.6889 30.3203C64.2899 30.3203 63.9816 30.2175 63.7639 30.012C63.5584 29.7943 63.4556 29.486 63.4556 29.087V18.7668C63.4556 18.3678 63.5584 18.0655 63.7639 17.8599C63.9816 17.6423 64.2899 17.5335 64.6889 17.5335H71.164C71.4663 17.5335 71.696 17.6121 71.8532 17.7693C72.0225 17.9264 72.1071 18.1501 72.1071 18.4403C72.1071 18.7426 72.0225 18.9784 71.8532 19.1477C71.696 19.3049 71.4663 19.3835 71.164 19.3835H65.6865V22.9021H70.765C71.0793 22.9021 71.3151 22.9807 71.4723 23.1379C71.6295 23.2951 71.7081 23.5248 71.7081 23.8271C71.7081 24.1294 71.6295 24.3592 71.4723 24.5164C71.3151 24.6735 71.0793 24.7521 70.765 24.7521H65.6865V28.4703H71.164C71.4663 28.4703 71.696 28.5489 71.8532 28.7061C72.0225 28.8633 72.1071 29.093 72.1071 29.3953C72.1071 29.6976 72.0225 29.9273 71.8532 30.0845C71.696 30.2417 71.4663 30.3203 71.164 30.3203H64.6889ZM75.4567 30.3203C75.0819 30.3203 74.7917 30.2175 74.5861 30.012C74.3806 29.7943 74.2778 29.4981 74.2778 29.1232V18.658C74.2778 18.2711 74.3745 17.9809 74.568 17.7874C74.7735 17.5818 75.0637 17.4791 75.4386 17.4791C75.8134 17.4791 76.0976 17.5818 76.291 17.7874C76.4966 17.9809 76.5994 18.2711 76.5994 18.658V28.3433H81.8592C82.1857 28.3433 82.4336 28.428 82.6028 28.5973C82.7842 28.7665 82.8749 29.0084 82.8749 29.3228C82.8749 29.6371 82.7842 29.885 82.6028 30.0664C82.4336 30.2357 82.1857 30.3203 81.8592 30.3203H75.4567ZM85.6413 30.3203C85.2664 30.3203 84.9762 30.2175 84.7707 30.012C84.5651 29.7943 84.4623 29.4981 84.4623 29.1232V18.658C84.4623 18.2711 84.5591 17.9809 84.7525 17.7874C84.9581 17.5818 85.2483 17.4791 85.6231 17.4791C85.998 17.4791 86.2821 17.5818 86.4756 17.7874C86.6811 17.9809 86.7839 18.2711 86.7839 18.658V28.3433H92.0438C92.3702 28.3433 92.6181 28.428 92.7874 28.5973C92.9688 28.7665 93.0595 29.0084 93.0595 29.3228C93.0595 29.6371 92.9688 29.885 92.7874 30.0664C92.6181 30.2357 92.3702 30.3203 92.0438 30.3203H85.6413Z" fill="black"/>
<path d="M59.7969 33.6549L58.3941 37.9307H57.2641L59.1805 32.7729H59.8996L59.7969 33.6549ZM60.9624 37.9307L59.556 33.6549L59.4427 32.7729H60.1689L62.096 37.9307H60.9624ZM60.8986 36.0107V36.8431H58.1745V36.0107H60.8986ZM63.7042 32.7729V37.9307H62.645V32.7729H63.7042ZM66.8995 32.7729V37.9307H65.8403V32.7729H66.8995ZM68.4865 32.7729V33.6053H64.2781V32.7729H68.4865ZM72.7162 36.0921H71.402V35.2632H72.7162C72.9193 35.2632 73.0847 35.2301 73.2122 35.164C73.3397 35.0955 73.433 35.0011 73.492 34.8806C73.5511 34.7602 73.5806 34.6244 73.5806 34.4732C73.5806 34.3197 73.5511 34.1768 73.492 34.0446C73.433 33.9123 73.3397 33.8061 73.2122 33.7258C73.0847 33.6455 72.9193 33.6053 72.7162 33.6053H71.7704V37.9307H70.7077V32.7729H72.7162C73.1201 32.7729 73.4661 32.8461 73.7542 32.9925C74.0447 33.1365 74.2667 33.3361 74.4202 33.5912C74.5737 33.8462 74.6504 34.1379 74.6504 34.4661C74.6504 34.7991 74.5737 35.0873 74.4202 35.3305C74.2667 35.5738 74.0447 35.7615 73.7542 35.8938C73.4661 36.026 73.1201 36.0921 72.7162 36.0921ZM78.2318 32.7729H79.291V36.1807C79.291 36.5774 79.206 36.9116 79.036 37.1832C78.8683 37.4548 78.6357 37.6591 78.3381 37.7961C78.0429 37.933 77.7028 38.0015 77.3179 38.0015C76.9329 38.0015 76.5905 37.933 76.2906 37.7961C75.993 37.6591 75.7592 37.4548 75.5892 37.1832C75.4215 36.9116 75.3377 36.5774 75.3377 36.1807V32.7729H76.4004V36.1807C76.4004 36.4121 76.437 36.6011 76.5102 36.7475C76.5834 36.8939 76.6885 37.0014 76.8255 37.0698C76.9648 37.1383 77.129 37.1726 77.3179 37.1726C77.5115 37.1726 77.6757 37.1383 77.8103 37.0698C77.9473 37.0014 78.0512 36.8939 78.122 36.7475C78.1952 36.6011 78.2318 36.4121 78.2318 36.1807V32.7729ZM84.3638 32.7729V37.9307H83.3011L81.2288 34.4732V37.9307H80.166V32.7729H81.2288L83.3046 36.2338V32.7729H84.3638ZM88.7494 37.1017V37.9307H86.004V37.1017H88.7494ZM86.3511 32.7729V37.9307H85.2884V32.7729H86.3511ZM88.3916 34.8735V35.6812H86.004V34.8735H88.3916ZM88.7458 32.7729V33.6053H86.004V32.7729H88.7458Z" fill="black"/>
</svg>
